<?xml version="1.0" encoding="UTF-8" standalone="no"?>
<svg
   xmlns:dc="http://purl.org/dc/elements/1.1/"
   xmlns:cc="http://creativecommons.org/ns#"
   xmlns:rdf="http://www.w3.org/1999/02/22-rdf-syntax-ns#"
   xmlns:svg="http://www.w3.org/2000/svg"
   xmlns="http://www.w3.org/2000/svg"
   viewBox="0 0 531.625 114.375"
   height="114.375"
   width="531.625"
   xml:space="preserve"
   version="1.1"
   id="svg2"><metadata
     id="metadata8"><rdf:RDF><cc:Work
         rdf:about=""><dc:format>image/svg+xml</dc:format><dc:type
           rdf:resource="http://purl.org/dc/dcmitype/StillImage" /><dc:title></dc:title></cc:Work></rdf:RDF></metadata><defs
     id="defs6" /><g
     transform="matrix(1.25,0,0,-1.25,0,114.375)"
     id="g10"><g
       transform="scale(0.1,0.1)"
       id="g12"><path
         id="path14"
         style="fill:#000000;fill-opacity:1;fill-rule:nonzero;stroke:none"
         d="m 585.066,795.309 c -46.968,0 -81.128,-37.36 -85.39,-91.821 l 160.121,0 c 2.129,59.793 -27.77,91.821 -74.731,91.821 z m 229.508,-199.61 -315.976,0 c 1.07,-70.449 43.75,-111.019 131.289,-111.019 52.301,0 106.738,10.66 155.84,33.09 l 14.961,-122.731 c -59.77,-24.57 -131.293,-36.348 -196.43,-36.348 -173.981,0 -270.063,84.379 -270.063,271.149 0,163.34 90.743,283.949 255.121,283.949 160.122,0 230.571,-107.809 230.571,-246.559 0,-22.421 -2.129,-45.921 -5.313,-71.519" /><path
         id="path16"
         style="fill:#000000;fill-opacity:1;fill-rule:nonzero;stroke:none"
         d="m 1208.43,596.762 c -96.07,0 -145.15,-20.274 -145.15,-69.371 0,-27.731 19.22,-46.95 53.38,-46.95 54.43,0 91.77,50.161 91.77,101.387 l 0,14.942 0,-0.008 z m 14.96,-227.352 c 0,26.68 0,54.43 4.25,81.11 l -1.07,0 c -25.61,-55.489 -88.57,-91.84 -162.22,-91.84 -101.412,0 -154.795,59.789 -154.795,145.211 0,134.488 130.215,192.129 298.875,194.257 l 0,26.68 c 0,45.922 -20.27,66.192 -86.45,66.192 -22.41,0 -42.71,-3.2 -59.77,-7.481 -2.16,-17.07 -5.34,-38.418 -9.6,-58.711 l -103.544,0 0,162.274 c 57.634,17.07 122.734,27.75 186.804,27.75 184.64,0 235.89,-68.321 235.89,-190.024 l 0,-230.547 c 25.61,-4.281 58.7,-8.543 85.38,-10.679 l 0,-105.68 c -69.38,-7.461 -156.91,-11.723 -233.75,-8.524" /><path
         id="path18"
         style="fill:#000000;fill-opacity:1;fill-rule:nonzero;stroke:none"
         d="m 2295.71,784.629 -124.85,-414.16 -179.34,0 -57.66,184.672 c -11.73,38.437 -21.32,77.91 -30.95,127.007 l -1.06,0 C 1891.19,631.988 1880.5,592.5 1866.64,548.73 l -52.32,-178.261 -176.12,0 -121.68,414.16 c -17.09,2.152 -34.16,4.281 -50.18,8.551 l 0,107.789 260.45,0 0,-107.789 c -12.81,-3.2 -25.62,-5.352 -40.56,-6.41 l 26.7,-98.2 c 10.68,-40.57 22.39,-81.129 30.95,-123.832 l 2.13,0 c 9.61,57.641 23.47,103.543 37.37,148.383 l 58.69,187.848 143.04,0 57.64,-187.848 c 16.02,-52.301 26.68,-96.07 38.39,-148.383 l 2.16,0 c 7.52,41.641 17.09,75.782 26.72,113.141 l 31.96,108.891 c -13.82,1.05 -27.72,3.199 -40.5,6.41 l 0,107.789 244.41,0 0,-107.789 c -16.01,-4.282 -33.07,-6.41 -50.18,-8.551" /><path
         id="path20"
         style="fill:#000000;fill-opacity:1;fill-rule:nonzero;stroke:none"
         d="m 2670.41,596.762 c -96.11,0 -145.16,-20.274 -145.16,-69.371 0,-27.731 19.2,-46.95 53.36,-46.95 54.41,0 91.8,50.161 91.8,101.387 l 0,14.942 0,-0.008 z m 14.92,-227.352 c 0,26.68 0,54.43 4.3,81.11 l -1.06,0 c -25.64,-55.489 -88.63,-91.84 -162.27,-91.84 -101.42,0 -154.78,59.789 -154.78,145.211 0,134.488 130.24,192.129 298.89,194.257 l 0,26.68 c 0,45.922 -20.3,66.192 -86.45,66.192 -22.44,0 -42.75,-3.2 -59.76,-7.481 -2.15,-17.07 -5.37,-38.418 -9.67,-58.711 l -103.52,0 0,162.274 c 57.63,17.07 122.76,27.75 186.79,27.75 184.66,0 235.93,-68.321 235.93,-190.024 l 0,-230.547 c 25.57,-4.281 58.69,-8.543 85.37,-10.679 l 0,-105.68 c -69.39,-7.461 -156.9,-11.723 -233.77,-8.524" /><path
         id="path22"
         style="fill:#000000;fill-opacity:1;fill-rule:nonzero;stroke:none"
         d="m 3201.05,796.371 c -52.3,0 -84.32,-30.961 -84.32,-76.84 0,-48.051 29.91,-77.929 85.38,-77.929 50.19,0 83.28,28.808 83.28,76.859 0,46.949 -29.93,77.91 -84.34,77.91 z m 51.06,-451.82 -84.34,0 c -6.39,0 -16.04,0 -21.35,1.051 -22.42,-14.961 -37.13,-50.18 -38.26,-72.602 -2.38,-47.68 12.54,-103.891 95.63,-103.891 75.82,0 116.62,80.43 116.62,122.071 0,28.789 -19.18,53.359 -68.3,53.359 l 0,0.012 z M 3186.83,46.9492 c -144.08,0 -237.07,94.1208 -237.07,198.7308 0,50.14 36.72,118.379 77.31,138.691 -30.96,14.899 -51.25,44.82 -51.25,82.168 0,42.68 27.75,82.191 64.06,97.133 -48.03,25.609 -79.02,76.859 -79.02,146.226 0,111.043 79.02,203.891 245.56,203.891 37.33,0 68.28,-5.328 99.24,-12.809 l 178.23,0 0,-128.089 -60.84,0 c 10.72,-10.661 16.02,-27.75 16.02,-48.051 0,-117.399 -80.05,-192.11 -234.81,-192.11 -10.69,0 -24.55,1.051 -36.31,2.129 -13.88,-5.347 -19.2,-17.089 -19.2,-26.699 0,-21.351 14.96,-27.73 75.8,-27.73 l 72.56,0 c 114.23,0 181.03,-68.239 181.03,-173.91 0,-116.391 -107.71,-259.5708 -291.32,-259.5708" /><path
         id="path24"
         style="fill:#000000;fill-opacity:1;fill-rule:nonzero;stroke:none"
         d="m 3665.19,228.691 c -47.17,0 -85.53,-38.402 -85.53,-85.57 0,-47.1522 38.36,-85.5507 85.53,-85.5507 47.15,0 85.54,38.3985 85.54,85.5507 0,47.168 -38.39,85.57 -85.54,85.57 z m 59.69,-85.562 c 0,-32.91 -26.78,-59.6876 -59.69,-59.6876 -32.91,0 -59.67,26.7776 -59.67,59.6876 0,32.93 26.76,59.691 59.67,59.691 32.91,0 59.69,-26.761 59.69,-59.691" /><path
         id="path26"
         style="fill:#000000;fill-opacity:1;fill-rule:nonzero;stroke:none"
         d="m 3919.18,228.691 c -47.15,0 -85.54,-38.402 -85.54,-85.57 0,-47.1522 38.39,-85.5507 85.54,-85.5507 47.21,0 85.62,38.3985 85.62,85.5507 0,47.168 -38.41,85.57 -85.62,85.57 z m 59.76,-85.562 c 0,-32.91 -26.81,-59.6876 -59.76,-59.6876 -32.91,0 -59.65,26.7776 -59.65,59.6876 0,32.93 26.74,59.691 59.65,59.691 32.95,0 59.76,-26.761 59.76,-59.691" /><path
         id="path28"
         style="fill:#000000;fill-opacity:1;fill-rule:nonzero;stroke:none"
         d="m 4166.91,228.691 c -47.13,0 -85.49,-38.402 -85.49,-85.57 0,-47.1522 38.36,-85.5507 85.49,-85.5507 47.17,0 85.57,38.3985 85.57,85.5507 0,47.168 -38.4,85.57 -85.57,85.57 z m 59.69,-85.562 c 0,-32.91 -26.78,-59.6876 -59.69,-59.6876 -32.89,0 -59.63,26.7776 -59.63,59.6876 0,32.93 26.74,59.691 59.63,59.691 32.91,0 59.69,-26.761 59.69,-59.691" /><path
         id="path30"
         style="fill:#000000;fill-opacity:1;fill-rule:nonzero;stroke:none"
         d="m 87.707,139.039 c -12.0117,0 -57.1914,0 -57.1914,-32.25 0,-10.0976 6.3321,-27.4999 32.8516,-27.4999 15.1601,0 26.5391,6.0507 33.8281,17.1093 6.6207,10.7616 6.9297,19.5706 7.5627,41.6796 -5.3517,0.641 -9.7932,0.961 -17.051,0.961 z M 108.227,61 c -2.211,7.9297 -2.832,15.4883 -2.832,23.7305 -14.2192,-26.25 -35.6997,-28.7696 -48.977,-28.7696 -36.3321,0 -55.921906,20.5274 -55.921906,46.7771 0,12.602 4.410156,32.832 27.789106,46.453 17.0703,9.469 42.3593,10.411 54.9804,10.411 7.6016,0 12.3399,-0.313 21.4804,-0.942 0,19.57 0,28.129 -5.6601,35.059 -6,7.89 -18.9609,10.453 -27.5,10.453 -30,0 -31.6015,-20.57 -31.9101,-26.871 l -29.71096,0 c 0.94146,8.199 1.91016,19.277 11.05076,30 12.0117,13.258 34.4492,17.07 51.1914,17.07 23.0703,0 47.731,-7.293 56.25,-23.383 5.059,-9.468 5.367,-17.047 5.367,-24.297 l -1.25,-75.882 c 0,-2.5199 0.313,-23.6879 2.524,-39.7973 l -26.871,0" /><path
         id="path32"
         style="fill:#000000;fill-opacity:1;fill-rule:nonzero;stroke:none"
         d="m 276.027,200.039 c -42.66,0 -43.281,-44.879 -43.281,-57.23 0,-11.329 1.578,-34.387 12.949,-50.5473 6.95,-10.1015 19.282,-15.4726 34.121,-15.4726 36.661,0 43.93,28.7499 43.93,60.3519 0,12.968 0,62.89 -47.711,62.89 l -0.008,0.008 z m 77.418,19.59 c -0.308,-6.328 -0.621,-20.207 -0.621,-25.918 l 0,-193.711 -30.019,0 0,78.7109 c -2.539,-3.7695 -5.7,-8.8906 -12.969,-13.6328 -13.262,-9.1172 -28.441,-10.0976 -35.699,-10.0976 -38.539,0 -72.36,27.1914 -72.36,85.9805 0,58.461 33.18,81.211 66.68,81.211 32.231,0 47.07,-17.703 54.02,-28.75 l 0.961,26.207 30.019,0" /><path
         id="path34"
         style="fill:#000000;fill-opacity:1;fill-rule:nonzero;stroke:none"
         d="m 461.195,219.629 0,-102.051 c 0,-15.527 3.481,-35.0975 33.789,-35.0975 14.864,0 28.774,5.039 37.293,17.6995 6.661,9.468 6.661,21.82 6.661,29.75 l 0,89.711 30.628,0 0,-128.9301 c 0,-3.1796 0.641,-20.8828 0.961,-29.7109 l -30.961,0 -0.621,27.1914 c -5.699,-11.0703 -16.449,-28.7695 -50.59,-28.7695 -39.16,0 -57.5,22.4375 -57.5,53.7261 l 0,106.481 30.352,0" /><path
         id="path36"
         style="fill:#000000;fill-opacity:1;fill-rule:nonzero;stroke:none"
         d="m 730.086,139.039 c -11.988,0 -57.191,0 -57.191,-32.25 0,-10.0976 6.332,-27.4999 32.851,-27.4999 15.18,0 26.539,6.0507 33.809,17.1093 6.64,10.7616 6.953,19.5706 7.582,41.6796 -5.371,0.641 -9.789,0.961 -17.051,0.961 z M 750.637,61 c -2.231,7.9297 -2.852,15.4883 -2.852,23.7305 -14.219,-26.25 -35.699,-28.7696 -48.961,-28.7696 -36.347,0 -55.937,20.5274 -55.937,46.7771 0,12.602 4.41,32.832 27.789,46.453 17.07,9.469 42.34,10.411 54.98,10.411 7.578,0 12.34,-0.313 21.481,-0.942 0,19.57 0,28.129 -5.68,35.059 -6,7.89 -18.961,10.453 -27.48,10.453 -30.02,0 -31.602,-20.57 -31.911,-26.871 l -29.711,0 c 0.961,8.199 1.891,19.277 11.051,30 12.032,13.258 34.449,17.07 51.192,17.07 23.09,0 47.707,-7.293 56.25,-23.383 5.039,-9.468 5.367,-17.047 5.367,-24.297 l -1.27,-75.882 c 0,-2.5199 0.313,-23.6879 2.52,-39.7973 l -26.84,0" /><path
         id="path38"
         style="fill:#000000;fill-opacity:1;fill-rule:nonzero;stroke:none"
         d="m 832.137,220.25 28.129,0 0,33.18 29.379,9.468 0,-42.66 35.41,0 0,-21.797 -35.41,0 0,-95.121 c 0,-7.8903 0,-21.1716 21.191,-21.1716 6.019,0 11.68,0.9414 14.219,1.5821 l 0,-23.0703 c -5.367,-0.961 -13.93,-1.8907 -24.649,-1.8907 -27.191,0 -40.14,7.9102 -40.14,33.7891 l 0,105.8824 -28.121,0 0,21.797" /><path
         id="path40"
         style="fill:#000000;fill-opacity:1;fill-rule:nonzero;stroke:none"
         d="m 988.875,219.629 29.695,0 0,-158.629 -29.695,0 0,158.629 z m -3.168,68.871 35.703,0 0,-32.539 -35.703,0 0,32.539" /><path
         id="path42"
         style="fill:#000000;fill-opacity:1;fill-rule:nonzero;stroke:none"
         d="m 1193.63,168.75 c -0.63,7.27 -2.85,33.16 -31.62,33.16 -41.06,0 -41.06,-47.68 -41.06,-59.711 0,-32.558 7.89,-62.9099 39.51,-62.9099 25.25,0 33.8,18.9804 34.42,34.4729 l 30.01,0 c -1.87,-30.9807 -24.93,-56.8636 -64.13,-56.8636 -10.74,0 -35.37,2.1914 -52.13,20.5118 -9.47,11.0703 -18.96,27.8088 -18.96,60.6598 0,66.071 40.44,85.641 72.04,85.641 10.42,0 34.13,-2.211 48.66,-19.57 11.7,-13.61 12.65,-26.563 13.26,-35.411 l -30,0" /><path
         id="path44"
         style="fill:#000000;fill-opacity:1;fill-rule:nonzero;stroke:none"
         d="m 1409.12,187.398 c 0,10.743 -0.64,21.821 -1.57,32.231 l 30.02,0 0.61,-30.641 c 5.7,22.09 24.67,29.364 37.93,31.274 8.85,1.269 15.49,0.957 20.55,0.636 l 0,-29.078 c -1.59,0.629 -3.5,0.942 -5.71,1.25 -2.2,0.352 -5.03,0.352 -8.51,0.352 -35.08,0 -43.28,-20.863 -43.28,-48.051 l 0,-84.371 -30.04,0 0,126.41" /><path
         id="path46"
         style="fill:#000000;fill-opacity:1;fill-rule:nonzero;stroke:none"
         d="m 1659.05,155.781 c 0.32,15.18 -2.51,46.758 -39.17,46.758 -19.28,0 -42.67,-11.68 -43.28,-46.758 l 82.45,0 z m -83.73,-20.82 c -0.64,-32.91 12.96,-57.2305 45.5,-57.2305 19.27,0 34.75,10.0976 37.3,32.8475 l 29.7,0 c -0.95,-7.848 -2.22,-20.8163 -13.59,-33.1561 -6.97,-7.9102 -22.75,-21.1524 -54.66,-21.1524 -49.94,0 -73.64,30.9414 -73.64,81.1915 0,31.289 6.3,57.23 31.28,74.551 15.17,10.777 34.13,11.718 43.29,11.718 71.1,0 69.52,-62.89 68.89,-88.769 l -114.07,0" /><path
         id="path48"
         style="fill:#000000;fill-opacity:1;fill-rule:nonzero;stroke:none"
         d="m 1776.91,108.07 c -0.31,-11.9919 6.02,-28.7692 34.77,-28.7692 12.32,0 21.48,2.25 27.78,10.1601 3.18,4.0782 5.07,9.4688 5.07,14.8401 0,15.469 -11.07,18.32 -34.75,23.687 -33.18,7.582 -60.98,14.223 -60.98,47.403 0,29.078 25.27,48.031 61.91,48.031 19.93,0 47.72,-5.66 57.22,-24.652 4.1,-8.829 4.1,-16.43 4.1,-23.071 l -30.33,0 c 0.94,24.02 -19.91,25.903 -30.65,25.903 -4.43,0 -32.23,0 -32.23,-22.75 0,-14.512 14.22,-18.012 22.43,-20.204 43.92,-10.429 53.39,-12.968 62.87,-21.82 8.86,-8.219 12.02,-19.258 12.02,-29.359 0,-17.7073 -9.8,-32.9104 -21.5,-40.1604 -13.91,-8.5391 -30.64,-10.7383 -47.07,-10.7383 -32.22,0 -62.25,13.2383 -61.93,51.4807 l 31.27,0" /><path
         id="path50"
         style="fill:#000000;fill-opacity:1;fill-rule:nonzero;stroke:none"
         d="m 2046.44,155.781 c 0.29,15.18 -2.5,46.758 -39.16,46.758 -19.3,0 -42.67,-11.68 -43.3,-46.758 l 82.46,0 z m -83.73,-20.82 c -0.64,-32.91 12.95,-57.2305 45.5,-57.2305 19.27,0 34.75,10.0976 37.29,32.8475 l 29.69,0 c -0.96,-7.848 -2.21,-20.8163 -13.55,-33.1561 -6.97,-7.9102 -22.76,-21.1524 -54.69,-21.1524 -49.92,0 -73.63,30.9414 -73.63,81.1915 0,31.289 6.32,57.23 31.29,74.551 15.17,10.777 34.12,11.718 43.3,11.718 71.07,0 69.51,-62.89 68.88,-88.769 l -114.08,0" /><path
         id="path52"
         style="fill:#000000;fill-opacity:1;fill-rule:nonzero;stroke:none"
         d="m 2223.42,139.039 c -12.04,0 -57.23,0 -57.23,-32.25 0,-10.0976 6.33,-27.4999 32.91,-27.4999 15.16,0 26.47,6.0507 33.79,17.1093 6.59,10.7616 6.95,19.5706 7.57,41.6796 -5.37,0.641 -9.82,0.961 -17.04,0.961 z M 2243.92,61 c -2.19,7.9297 -2.81,15.4883 -2.81,23.7305 -14.24,-26.25 -35.72,-28.7696 -48.98,-28.7696 -36.35,0 -55.92,20.5274 -55.92,46.7771 0,12.602 4.41,32.832 27.79,46.453 17.09,9.469 42.32,10.411 54.98,10.411 7.62,0 12.29,-0.313 21.48,-0.942 0,19.57 0,28.129 -5.7,35.059 -5.99,7.89 -18.96,10.453 -27.5,10.453 -30.03,0 -31.6,-20.57 -31.87,-26.871 l -29.71,0 c 0.94,8.199 1.89,19.277 11.03,30 12.04,13.258 34.48,17.07 51.22,17.07 23.02,0 47.71,-7.293 56.25,-23.383 5.05,-9.468 5.33,-17.047 5.33,-24.297 l -1.28,-75.882 c 0,-2.5199 0.38,-23.6879 2.55,-39.7973 l -26.86,0" /><path
         id="path54"
         style="fill:#000000;fill-opacity:1;fill-rule:nonzero;stroke:none"
         d="m 2351.38,187.398 c 0,10.743 -0.68,21.821 -1.58,32.231 l 30.02,0 0.63,-30.641 c 5.66,22.09 24.64,29.364 37.89,31.274 8.84,1.269 15.52,0.957 20.55,0.636 l 0,-29.078 c -1.57,0.629 -3.46,0.942 -5.71,1.25 -2.2,0.352 -5.06,0.352 -8.52,0.352 -35.05,0 -43.3,-20.863 -43.3,-48.051 l 0,-84.371 -29.98,0 0,126.41" /><path
         id="path56"
         style="fill:#000000;fill-opacity:1;fill-rule:nonzero;stroke:none"
         d="m 2589.92,168.75 c -0.63,7.27 -2.83,33.16 -31.56,33.16 -41.13,0 -41.13,-47.68 -41.13,-59.711 0,-32.558 7.91,-62.9099 39.5,-62.9099 25.28,0 33.84,18.9804 34.48,34.4729 l 29.98,0 c -1.89,-30.9807 -24.94,-56.8636 -64.12,-56.8636 -10.75,0 -35.37,2.1914 -52.16,20.5118 -9.46,11.0703 -18.95,27.8088 -18.95,60.6598 0,66.071 40.48,85.641 72.04,85.641 10.45,0 34.14,-2.211 48.66,-19.57 11.72,-13.61 12.64,-26.563 13.28,-35.411 l -30.03,0" /><path
         id="path58"
         style="fill:#000000;fill-opacity:1;fill-rule:nonzero;stroke:none"
         d="m 2668.57,288.809 30.04,0 0,-92.559 c 9.78,16.738 29.39,26.23 51.49,26.23 16.77,0 40.78,-6.019 49.94,-25.289 3.17,-6.332 5.39,-13.91 5.39,-36.972 l 0,-99.219 -30.36,0 0,93.852 c 0,14.218 0,44.878 -34.14,44.878 -22.13,0 -33.16,-13.57 -37.26,-21.191 -5.06,-8.848 -5.06,-23.687 -5.06,-33.48 l 0,-84.059 -30.04,0 0,227.809" /></g></g></svg>