<?xml version="1.0" encoding="UTF-8" standalone="no"?>
<svg
   xmlns:dc="http://purl.org/dc/elements/1.1/"
   xmlns:cc="http://creativecommons.org/ns#"
   xmlns:rdf="http://www.w3.org/1999/02/22-rdf-syntax-ns#"
   xmlns:svg="http://www.w3.org/2000/svg"
   xmlns="http://www.w3.org/2000/svg"
   xmlns:sodipodi="http://sodipodi.sourceforge.net/DTD/sodipodi-0.dtd"
   xmlns:inkscape="http://www.inkscape.org/namespaces/inkscape"
   viewBox="0 0 521.89343 105.15352"
   height="105.15352"
   width="521.89343"
   version="1.1"
   id="svg4190"
   inkscape:version="0.91 r13725"
   sodipodi:docname="eaw-rdm1_inv.svg">
  <sodipodi:namedview
     pagecolor="#ffffff"
     bordercolor="#666666"
     borderopacity="1"
     objecttolerance="10"
     gridtolerance="10"
     guidetolerance="10"
     inkscape:pageopacity="0"
     inkscape:pageshadow="2"
     inkscape:window-width="1863"
     inkscape:window-height="1171"
     id="namedview49"
     showgrid="false"
     inkscape:zoom="1.4533402"
     inkscape:cx="183.27171"
     inkscape:cy="54.605131"
     inkscape:window-x="1920"
     inkscape:window-y="0"
     inkscape:window-maximized="1"
     inkscape:current-layer="svg4190" />
  <metadata
     id="metadata4196">
    <rdf:RDF>
      <cc:Work
         rdf:about="">
        <dc:format>image/svg+xml</dc:format>
        <dc:type
           rdf:resource="http://purl.org/dc/dcmitype/StillImage" />
        <dc:title />
      </cc:Work>
    </rdf:RDF>
  </metadata>
  <defs
     id="defs4194" />
  <g
     id="g4296">
    <text
       sodipodi:linespacing="102%"
       transform="scale(0.95962171,1.0420773)"
       id="text4214"
       y="29.92127"
       x="384.01984"
       style="font-style:italic;font-variant:normal;font-weight:bold;font-stretch:normal;font-size:20.8415451px;line-height:101.99999809%;font-family:'Liberation Mono';-inkscape-font-specification:'Liberation Mono Bold Italic';text-align:start;letter-spacing:0px;word-spacing:0px;text-anchor:start;fill:#ff9955;fill-opacity:1;stroke:none;stroke-width:1px;stroke-linecap:butt;stroke-linejoin:miter;stroke-opacity:1"
       xml:space="preserve"><tspan
         style="font-style:normal;font-variant:normal;font-weight:bold;font-stretch:normal;font-size:31.26231766px;line-height:101.99999809%;font-family:'DejaVu Sans Mono';-inkscape-font-specification:'DejaVu Sans Mono Bold';text-align:start;text-anchor:start;fill:#ff9955;fill-opacity:1"
         y="29.92127"
         x="384.01984"
         id="tspan4216">Research</tspan><tspan
         style="font-style:normal;font-variant:normal;font-weight:bold;font-stretch:normal;font-size:31.26231766px;line-height:101.99999809%;font-family:'DejaVu Sans Mono';-inkscape-font-specification:'DejaVu Sans Mono Bold';text-align:start;text-anchor:start;fill:#ff9955;fill-opacity:1"
         id="tspan4218"
         y="61.808834"
         x="384.01984">Data</tspan><tspan
         style="font-style:normal;font-variant:normal;font-weight:bold;font-stretch:normal;font-size:31.26231766px;line-height:101.99999809%;font-family:'DejaVu Sans Mono';-inkscape-font-specification:'DejaVu Sans Mono Bold';text-align:start;text-anchor:start;fill:#ff9955;fill-opacity:1"
         id="tspan4220"
         y="93.696396"
         x="384.01984">Platform</tspan></text>
    <text
       sodipodi:linespacing="125%"
       transform="scale(0.7649473,1.3072796)"
       id="text4222"
       y="63.518063"
       x="437.02493"
       style="font-style:normal;font-weight:normal;font-size:93.02148438px;line-height:125%;font-family:sans-serif;letter-spacing:0px;word-spacing:0px;fill:#6a99a5;fill-opacity:1;stroke:none;stroke-width:1px;stroke-linecap:butt;stroke-linejoin:miter;stroke-opacity:1"
       xml:space="preserve"><tspan
         style="font-style:normal;font-variant:normal;font-weight:normal;font-stretch:normal;font-family:'TeX Gyre Termes Math';-inkscape-font-specification:'TeX Gyre Termes Math';fill:#6a99a5;fill-opacity:1"
         y="63.518063"
         x="437.02493"
         id="tspan4224">{</tspan></text>
    <path
       inkscape:connector-curvature="0"
       id="path3373"
       d="m 519.49319,2.4341788 0,100.2851512"
       style="fill:none;fill-rule:evenodd;stroke:#659cab;stroke-width:4.80000019;stroke-linecap:round;stroke-linejoin:miter;stroke-miterlimit:4;stroke-dasharray:none;stroke-dashoffset:0;stroke-opacity:1" />
    <path
       id="path14"
       style="fill:#005876;fill-opacity:0.98431373;fill-rule:nonzero;stroke:none"
       d="m 46.106472,26.675371 c -3.704482,0 -6.398765,2.910261 -6.73492,7.152653 l 12.629139,0 c 0.167919,-4.657743 -2.190289,-7.152653 -5.894219,-7.152653 z m 18.101863,15.549178 -24.921807,0 c 0.08439,5.487821 3.45067,8.648135 10.355087,8.648135 4.125109,0 8.41869,-0.830391 12.291486,-2.577638 l 1.180011,9.560474 c -4.714207,1.913948 -10.355403,2.831428 -15.492919,2.831428 -13.722311,0 -21.300536,-6.572937 -21.300536,-21.121908 0,-12.723825 7.157124,-22.119 20.122023,-22.119 12.629218,0 18.185705,8.398083 18.185705,19.206402 0,1.746546 -0.16792,3.577144 -0.41905,5.571172"
       inkscape:connector-curvature="0" />
    <path
       id="path16"
       style="fill:#005776;fill-opacity:1;fill-rule:nonzero;stroke:none"
       d="m 95.272731,42.141743 c -7.577278,0 -11.448339,1.5793 -11.448339,5.403848 0,2.160184 1.515929,3.657301 4.210212,3.657301 4.293029,0 7.238127,-3.907431 7.238127,-7.897823 l 0,-1.163949 0,6.23e-4 z m 1.179932,17.710219 c 0,-2.078313 0,-4.239977 0.335208,-6.31829 l -0.08439,0 c -2.019924,4.322471 -6.985734,7.154133 -12.794692,7.154133 -7.998615,0 -12.209064,-4.657431 -12.209064,-11.311616 0,-10.476318 10.270379,-14.966424 23.57301,-15.132191 l 0,-2.078313 c 0,-3.577222 -1.598745,-5.156211 -6.818525,-5.156211 -1.767532,0 -3.368644,0.249273 -4.714208,0.582754 -0.170364,1.329715 -0.421179,2.992677 -0.757176,4.573457 l -8.166771,0 0,-12.640786 c 4.545736,-1.329715 9.680334,-2.161664 14.733693,-2.161664 14.563016,0 18.605226,5.322055 18.605226,14.80245 l 0,17.959102 c 2.01993,0.33348 4.62982,0.665481 6.73413,0.83187 l 0,8.232239 c -5.47217,0.581195 -12.37588,0.913196 -18.436437,0.664001"
       inkscape:connector-curvature="0" />
    <path
       id="path18"
       style="fill:#005776;fill-opacity:1;fill-rule:nonzero;stroke:none"
       d="m 181.02919,27.507319 -9.84723,32.262149 -14.14499,0 -4.54778,-14.385541 c -0.92518,-2.994157 -1.68156,-6.069016 -2.44111,-9.893564 l -0.0836,0 c -0.84078,3.907353 -1.68393,6.983381 -2.7771,10.392967 l -4.12661,13.886138 -13.89102,0 -9.5972,-32.262149 c -1.34793,-0.167636 -2.69428,-0.33348 -3.95782,-0.666104 l 0,-8.396525 20.54233,0 0,8.396525 c -1.01035,0.249273 -2.02071,0.416909 -3.19906,0.499325 l 2.10589,7.649563 c 0.84236,3.160313 1.76596,6.31977 2.4411,9.646239 l 0.168,0 c 0.75797,-4.490106 1.85114,-8.065771 2.94747,-11.558708 l 4.62902,-14.632944 11.28192,0 4.54621,14.632944 c 1.26354,4.074133 2.10432,7.483641 3.02791,11.558708 l 0.17037,0 c 0.59312,-3.243742 1.34793,-5.90325 2.10747,-8.813434 l 2.52077,-8.482368 c -1.09002,-0.08179 -2.18635,-0.249195 -3.19434,-0.499325 l 0,-8.396525 19.27722,0 0,8.396525 c -1.26275,0.333558 -2.60831,0.499325 -3.95782,0.666104"
       inkscape:connector-curvature="0" />
    <path
       id="path20"
       style="fill:#005776;fill-opacity:1;fill-rule:nonzero;stroke:none"
       d="m 210.5827,42.141743 c -7.58043,0 -11.44912,1.5793 -11.44912,5.403848 0,2.160184 1.51435,3.657301 4.20863,3.657301 4.29145,0 7.24049,-3.907431 7.24049,-7.897823 l 0,-1.163949 0,6.23e-4 z m 1.17678,17.710219 c 0,-2.078313 0,-4.239977 0.33915,-6.31829 l -0.0836,0 c -2.02229,4.322471 -6.99047,7.154133 -12.79864,7.154133 -7.99924,0 -12.20788,-4.657431 -12.20788,-11.311616 0,-10.476318 10.27235,-14.966424 23.57419,-15.132191 l 0,-2.078313 c 0,-3.577222 -1.60111,-5.156211 -6.81852,-5.156211 -1.7699,0 -3.3718,0.249273 -4.71342,0.582754 -0.16958,1.329715 -0.42354,2.992677 -0.7627,4.573457 l -8.16487,0 0,-12.640786 c 4.54542,-1.329715 9.68238,-2.161664 14.73258,-2.161664 14.56459,0 18.60839,5.322055 18.60839,14.80245 l 0,17.959102 c 2.01677,0.33348 4.62902,0.665481 6.73334,0.83187 l 0,8.232239 c -5.47296,0.581195 -12.37509,0.913196 -18.43802,0.664001"
       inkscape:connector-curvature="0" />
    <path
       id="path22"
       style="fill:#005776;fill-opacity:1;fill-rule:nonzero;stroke:none"
       d="m 252.43559,26.592643 c -4.12503,0 -6.65052,2.411794 -6.65052,5.985667 0,3.743066 2.35907,6.070496 6.73413,6.070496 3.95861,0 6.5685,-2.244079 6.5685,-5.987146 0,-3.657223 -2.36066,-6.069017 -6.65211,-6.069017 z m 4.02723,35.19578 -6.6521,0 c -0.504,0 -1.26512,0 -1.68393,-0.08187 -1.76832,1.165428 -2.92854,3.908911 -3.01766,5.655535 -0.18772,3.714167 0.98906,8.092879 7.54257,8.092879 5.98011,0 9.19811,-6.265319 9.19811,-9.509061 0,-2.242599 -1.51277,-4.156548 -5.38699,-4.156548 l 0,-9.35e-4 z m -5.14879,23.182523 c -11.36395,0 -18.6983,-7.331802 -18.6983,-15.48069 0,-3.905796 2.8962,-9.221463 6.09763,-10.803723 -2.44189,-1.160599 -4.04221,-3.491379 -4.04221,-6.400706 0,-3.324677 2.18871,-6.402497 5.05257,-7.566446 -3.78825,-1.994884 -6.23251,-5.987146 -6.23251,-11.390682 0,-8.650004 6.23251,-15.882659 19.36793,-15.882659 2.94431,0 5.38541,0.41504 7.8273,0.997793 l 14.05744,0 0,9.97785 -4.7986,0 c 0.84551,0.830469 1.26354,2.161664 1.26354,3.743067 0,9.145123 -6.31374,14.964945 -18.52005,14.964945 -0.84314,0 -1.93632,-0.08187 -2.86386,-0.165845 -1.09475,0.41652 -1.51435,1.331196 -1.51435,2.079794 0,1.663195 1.17993,2.160105 5.97853,2.160105 l 5.72299,0 c 9.0096,0 14.27828,5.315668 14.27828,13.547205 0,9.066602 -8.49535,20.219992 -22.97712,20.219992"
       inkscape:connector-curvature="0" />
    <path
       id="path24"
       style="fill:#005876;fill-opacity:0.98431373;fill-rule:nonzero;stroke:none"
       d="m 289.04346,70.813661 c -3.72041,0 -6.74596,2.991431 -6.74596,6.665714 0,3.673052 3.02555,6.664211 6.74596,6.664211 3.71884,0 6.74675,-2.991159 6.74675,-6.664211 0,-3.674283 -3.02791,-6.665714 -6.74675,-6.665714 z m 4.7079,6.665091 c 0,2.563616 -2.11221,4.649532 -4.7079,4.649532 -2.59569,0 -4.70632,-2.085916 -4.70632,-4.649532 0,-2.565174 2.11063,-4.649797 4.70632,-4.649797 2.59569,0 4.7079,2.084623 4.7079,4.649797"
       inkscape:connector-curvature="0" />
    <path
       id="path26"
       style="fill:#005876;fill-opacity:0.98431373;fill-rule:nonzero;stroke:none"
       d="m 309.07628,70.813661 c -3.71884,0 -6.74675,2.991431 -6.74675,6.665714 0,3.673052 3.02791,6.664211 6.74675,6.664211 3.72357,0 6.75306,-2.991159 6.75306,-6.664211 0,-3.674283 -3.02949,-6.665714 -6.75306,-6.665714 z m 4.71342,6.665091 c 0,2.563616 -2.11457,4.649532 -4.71342,4.649532 -2.59569,0 -4.70474,-2.085916 -4.70474,-4.649532 0,-2.565174 2.10905,-4.649797 4.70474,-4.649797 2.59885,0 4.71342,2.084623 4.71342,4.649797"
       inkscape:connector-curvature="0" />
    <path
       id="path28"
       style="fill:#005876;fill-opacity:0.98431373;fill-rule:nonzero;stroke:none"
       d="m 328.61536,70.813661 c -3.71726,0 -6.74281,2.991431 -6.74281,6.665714 0,3.673052 3.02555,6.664211 6.74281,6.664211 3.72041,0 6.74911,-2.991159 6.74911,-6.664211 0,-3.674283 -3.0287,-6.665714 -6.74911,-6.665714 z m 4.70789,6.665091 c 0,2.563616 -2.1122,4.649532 -4.70789,4.649532 -2.59412,0 -4.70317,-2.085916 -4.70317,-4.649532 0,-2.565174 2.10905,-4.649797 4.70317,-4.649797 2.59569,0 4.70789,2.084623 4.70789,4.649797"
       inkscape:connector-curvature="0" />
    <path
       id="path30"
       style="fill:#005776;fill-opacity:0.98431373;fill-rule:nonzero;stroke:none"
       d="m 6.8785395,77.797354 c -0.9473924,0 -4.510827,0 -4.510827,2.512204 0,0.786581 0.4994284,2.142181 2.5910869,2.142181 1.1957145,0 2.0932043,-0.471336 2.6681058,-1.332776 0.5221909,-0.838305 0.5465625,-1.524507 0.5964888,-3.246749 -0.4221018,-0.04993 -0.7724139,-0.07486 -1.3448545,-0.07486 z M 8.4970026,83.87642 C 8.3226156,83.258714 8.2736358,82.669915 8.2736358,82.027866 7.1521324,84.072683 5.4579123,84.268955 4.4106988,84.268955 1.5450963,84.268955 -4.086782e-8,82.669915 -4.086782e-8,80.625122 -4.086782e-8,79.643454 0.34783986,78.067581 2.1917954,77.006536 3.5381721,76.268921 5.532778,76.195542 6.5282353,76.195542 c 0.599557,0 0.9732784,0.02438 1.6942122,0.07338 0,-1.524459 0,-2.191186 -0.446426,-2.731018 -0.4732348,-0.614614 -1.495493,-0.814266 -2.1689929,-0.814266 -2.3661741,0 -2.4924884,1.602358 -2.5168285,2.093192 l -2.34337676,0 c 0.0742553,-0.638684 0.15065904,-1.501636 0.87160076,-2.336934 0.9473924,-1.032769 2.7170935,-1.329715 4.0375921,-1.329715 1.8196116,0 3.7646619,0.568108 4.4365768,1.821484 0.399016,0.737536 0.423308,1.327923 0.423308,1.892682 l -0.09859,5.911041 c 0,0.196294 0.02469,1.845235 0.199074,3.100121 l -2.1193824,0"
       inkscape:connector-curvature="0" />
    <path
       id="path32"
       style="fill:#005776;fill-opacity:0.98431373;fill-rule:nonzero;stroke:none"
       d="m 21.731803,73.045589 c -3.364699,0 -3.413679,3.495975 -3.413679,4.45809 0,0.882504 0.12446,2.678672 1.021319,3.937523 0.548164,0.786885 1.520819,1.205282 2.691208,1.205282 2.891543,0 3.464867,-2.239554 3.464867,-4.70128 0,-1.010179 0,-4.898992 -3.763084,-4.898992 l -6.31e-4,-6.23e-4 z m 6.106149,-1.526018 c -0.02429,0.492937 -0.04898,1.574081 -0.04898,2.018955 l 0,15.089659 -2.367673,0 0,-6.131405 c -0.200257,0.293635 -0.449573,0.692558 -1.022897,1.061965 -1.046006,0.71021 -2.243212,0.786581 -2.815668,0.786581 -3.039666,0 -5.707212,-2.11815 -5.707212,-6.697692 0,-4.553982 2.616989,-6.326157 5.259216,-6.326157 2.542139,0 3.712528,1.379025 4.260691,2.239561 l 0.0758,-2.041467 2.367672,0"
       inkscape:connector-curvature="0" />
    <path
       id="path34"
       style="fill:#005776;fill-opacity:1;fill-rule:nonzero;stroke:none"
       d="m 36.336461,71.519571 0,7.949548 c 0,1.209519 0.274555,2.734017 2.665021,2.734017 1.172361,0 2.269477,-0.392527 2.941392,-1.378752 0.525369,-0.737536 0.525369,-1.69973 0.525369,-2.317459 l 0,-6.988289 2.415706,0 0,10.04337 c 0,0.247684 0.05056,1.626724 0.0758,2.314414 l -2.44197,0 -0.04898,-2.11815 c -0.449494,0.862352 -1.297373,2.24108 -3.990158,2.24108 -3.088646,0 -4.535167,-1.747831 -4.535167,-4.185144 l 0,-8.294635 2.393937,0"
       inkscape:connector-curvature="0" />
    <path
       id="path36"
       style="fill:#005776;fill-opacity:1;fill-rule:nonzero;stroke:none"
       d="m 57.544558,77.797354 c -0.945523,0 -4.510795,0 -4.510795,2.512204 0,0.786581 0.49942,2.142181 2.591039,2.142181 1.197284,0 2.093196,-0.471336 2.666599,-1.332776 0.523714,-0.838305 0.548401,-1.524507 0.598011,-3.246749 -0.423624,-0.04993 -0.772082,-0.07486 -1.344854,-0.07486 z m 1.620908,6.079066 c -0.175964,-0.617706 -0.224944,-1.206505 -0.224944,-1.848554 -1.121488,2.044817 -2.815669,2.241089 -3.861675,2.241089 -2.866778,0 -4.41189,-1.59904 -4.41189,-3.643833 0,-0.981668 0.347828,-2.557541 2.191787,-3.618586 1.346354,-0.737615 3.339461,-0.810994 4.336409,-0.810994 0.597695,0 0.973286,0.02438 1.694259,0.07338 0,-1.524459 0,-2.191186 -0.447995,-2.731018 -0.473235,-0.614614 -1.495501,-0.814266 -2.167416,-0.814266 -2.367751,0 -2.492527,1.602358 -2.516899,2.093192 l -2.34338,0 c 0.0758,-0.638684 0.149148,-1.501636 0.87162,-2.336934 0.948993,-1.032769 2.717077,-1.329715 4.037639,-1.329715 1.821165,0 3.762769,0.568108 4.436577,1.821484 0.397438,0.737536 0.423308,1.327923 0.423308,1.892682 l -0.100168,5.911041 c 0,0.196294 0.02469,1.845235 0.198759,3.100121 l -2.116937,0"
       inkscape:connector-curvature="0" />
    <path
       id="path38"
       style="fill:#005776;fill-opacity:1;fill-rule:nonzero;stroke:none"
       d="m 65.593572,71.471197 2.218604,0 0,-2.584649 2.317194,-0.737536 0,3.323119 2.792875,0 0,1.697938 -2.792875,0 0,7.409716 c 0,0.614637 0,1.649221 1.671387,1.649221 0.474733,0 0.92123,-0.07333 1.121488,-0.123242 l 0,1.797125 c -0.423309,0.07486 -1.098694,0.147282 -1.944128,0.147282 -2.144621,0 -3.165941,-0.616187 -3.165941,-2.632096 l 0,-8.248006 -2.217973,0 0,-1.697938"
       inkscape:connector-curvature="0" />
    <path
       id="path40"
       style="fill:#005876;fill-opacity:0.98431373;fill-rule:nonzero;stroke:none"
       d="m 77.955886,71.519571 2.342118,0 0,12.356849 -2.342118,0 0,-12.356849 z m -0.249868,-5.364899 2.815983,0 0,2.534717 -2.815983,0 0,-2.534717"
       inkscape:connector-curvature="0" />
    <path
       id="path42"
       style="fill:#005876;fill-opacity:0.98431373;fill-rule:nonzero;stroke:none"
       d="m 94.105418,75.482933 c -0.04969,-0.566317 -0.224786,-2.583091 -2.493947,-2.583091 -3.238504,0 -3.238504,3.714167 -3.238504,4.651355 0,2.536196 0.622304,4.900542 3.116251,4.900542 1.99153,0 2.66589,-1.478531 2.714791,-2.685362 l 2.366963,0 c -0.147492,2.413328 -1.966291,4.429548 -5.058092,4.429548 -0.84709,0 -2.789719,-0.170705 -4.111622,-1.597824 -0.746922,-0.862351 -1.495422,-2.166244 -1.495422,-4.725264 0,-5.146785 3.189603,-6.671245 5.681973,-6.671245 0.821851,0 2.691917,0.172232 3.837934,1.52446 0.922808,1.060189 0.997737,2.069199 1.045849,2.758439 l -2.366174,0"
       inkscape:connector-curvature="0" />
    <path
       id="path44"
       style="fill:#005876;fill-opacity:0.98431373;fill-rule:nonzero;stroke:none"
       d="m 111.10165,74.030295 c 0,-0.836856 -0.0505,-1.699808 -0.12383,-2.510724 l 2.36775,0 0.0481,2.386866 c 0.44957,-1.720762 1.94578,-2.28739 2.99163,-2.436175 0.69802,-0.09885 1.22174,-0.07455 1.62083,-0.04954 l 0,2.265112 c -0.1254,-0.049 -0.27605,-0.07338 -0.45036,-0.09737 -0.17352,-0.02742 -0.39673,-0.02742 -0.6712,-0.02742 -2.76685,0 -3.4136,1.625182 -3.4136,3.743067 l 0,6.572315 -2.36933,0 0,-9.84706"
       inkscape:connector-curvature="0" />
    <path
       id="path46"
       style="fill:#005876;fill-opacity:0.98431373;fill-rule:nonzero;stroke:none"
       d="m 130.81424,76.493189 c 0.0252,-1.182488 -0.19797,-3.642345 -3.08943,-3.642345 -1.52066,0 -3.36549,0.909847 -3.4136,3.642345 l 6.50303,0 z m -6.60399,1.621832 c -0.0505,2.563617 1.02219,4.45813 3.5887,4.45813 1.51987,0 2.74082,-0.786581 2.94194,-2.558748 l 2.34251,0 c -0.0749,0.611342 -0.17509,1.621544 -1.07187,2.582787 -0.54974,0.616187 -1.79435,1.647725 -4.31117,1.647725 -3.93889,0 -5.80817,-2.410266 -5.80817,-6.324638 0,-2.437344 0.4969,-4.458091 2.46713,-5.807358 1.1965,-0.839505 2.69192,-0.912807 3.41439,-0.912807 5.60783,0 5.48321,4.898992 5.43352,6.914909 l -8.99698,0"
       inkscape:connector-curvature="0" />
    <path
       id="path48"
       style="fill:#005876;fill-opacity:0.98431373;fill-rule:nonzero;stroke:none"
       d="m 140.11015,80.209771 c -0.0245,0.934142 0.47481,2.241057 2.7424,2.241057 0.97171,0 1.69418,-0.17527 2.19108,-0.791449 0.25081,-0.317683 0.39988,-0.737599 0.39988,-1.156011 0,-1.205001 -0.87312,-1.427088 -2.74082,-1.845165 -2.61699,-0.590622 -4.80964,-1.107941 -4.80964,-3.692589 0,-2.265112 1.9931,-3.741509 4.88299,-3.741509 1.57193,0 3.7638,0.440901 4.51308,1.920336 0.32338,0.68776 0.32338,1.279861 0.32338,1.79718 l -2.3922,0 c 0.0741,-1.871105 -1.57035,-2.017786 -2.41744,-2.017786 -0.34941,0 -2.54206,0 -2.54206,1.772174 0,1.130453 1.12157,1.403095 1.76911,1.573847 3.46408,0.812396 4.211,1.010179 4.95871,1.69973 0.69881,0.640242 0.94805,1.500156 0.94805,2.287001 0,1.37936 -0.77295,2.563648 -1.69576,3.128407 -1.09712,0.665177 -2.41665,0.83649 -3.71253,0.83649 -2.54127,0 -4.90981,-1.031235 -4.88457,-4.010233 l 2.46634,0"
       inkscape:connector-curvature="0" />
    <path
       id="path50"
       style="fill:#005876;fill-opacity:0.98431373;fill-rule:nonzero;stroke:none"
       d="m 161.36865,76.493189 c 0.0229,-1.182488 -0.19718,-3.642345 -3.08865,-3.642345 -1.52224,0 -3.36548,0.909847 -3.41517,3.642345 l 6.50382,0 z m -6.60399,1.621832 c -0.0505,2.563617 1.0214,4.45813 3.58869,4.45813 1.51988,0 2.74082,-0.786581 2.94116,-2.558748 l 2.34172,0 c -0.0757,0.611342 -0.17431,1.621544 -1.06872,2.582787 -0.54974,0.616187 -1.79514,1.647725 -4.31353,1.647725 -3.93732,0 -5.80738,-2.410266 -5.80738,-6.324638 0,-2.437344 0.49847,-4.458091 2.46792,-5.807358 1.19649,-0.839505 2.69112,-0.912807 3.41517,-0.912807 5.60547,0 5.48243,4.898992 5.43274,6.914909 l -8.99777,0"
       inkscape:connector-curvature="0" />
    <path
       id="path52"
       style="fill:#005876;fill-opacity:0.98431373;fill-rule:nonzero;stroke:none"
       d="m 175.3275,77.797354 c -0.94963,0 -4.51387,0 -4.51387,2.512204 0,0.786581 0.49926,2.142181 2.59569,2.142181 1.19571,0 2.08775,-0.471336 2.6651,-1.332776 0.51977,-0.838305 0.54817,-1.524507 0.59707,-3.246749 -0.42355,-0.04993 -0.77453,-0.07486 -1.34399,-0.07486 z m 1.61688,6.079066 c -0.17273,-0.617706 -0.22163,-1.206505 -0.22163,-1.848554 -1.12314,2.044817 -2.81732,2.241089 -3.86317,2.241089 -2.86701,0 -4.41055,-1.59904 -4.41055,-3.643833 0,-0.981668 0.34783,-2.557541 2.19187,-3.618586 1.34793,-0.737615 3.33788,-0.810994 4.33641,-0.810994 0.601,0 0.96934,0.02438 1.69418,0.07338 0,-1.524459 0,-2.191186 -0.44958,-2.731018 -0.47244,-0.614614 -1.49542,-0.814266 -2.16899,-0.814266 -2.36854,0 -2.49237,1.602358 -2.51367,2.093192 l -2.3433,0 c 0.0741,-0.638684 0.14907,-1.501636 0.86997,-2.336934 0.94962,-1.032769 2.71952,-1.329715 4.03984,-1.329715 1.81565,0 3.76301,0.568108 4.43658,1.821484 0.39831,0.737536 0.42039,1.327923 0.42039,1.892682 l -0.10096,5.911041 c 0,0.196294 0.03,1.845235 0.20113,3.100121 l -2.11852,0"
       inkscape:connector-curvature="0" />
    <path
       id="path54"
       style="fill:#005876;fill-opacity:0.98431373;fill-rule:nonzero;stroke:none"
       d="m 185.42002,74.030295 c 0,-0.836856 -0.0536,-1.699808 -0.12462,-2.510724 l 2.36775,0 0.0497,2.386866 c 0.44642,-1.720762 1.94342,-2.28739 2.98848,-2.436175 0.69723,-0.09885 1.2241,-0.07455 1.62083,-0.04954 l 0,2.265112 c -0.12383,-0.049 -0.2729,-0.07338 -0.45036,-0.09737 -0.17352,-0.02742 -0.3991,-0.02742 -0.672,-0.02742 -2.76448,0 -3.41517,1.625182 -3.41517,3.743067 l 0,6.572315 -2.3646,0 0,-9.84706"
       inkscape:connector-curvature="0" />
    <path
       id="path56"
       style="fill:#005876;fill-opacity:0.98431373;fill-rule:nonzero;stroke:none"
       d="m 204.23426,75.482933 c -0.0497,-0.566317 -0.22321,-2.583091 -2.48922,-2.583091 -3.24402,0 -3.24402,3.714167 -3.24402,4.651355 0,2.536196 0.62388,4.900542 3.11546,4.900542 1.9939,0 2.66905,-1.478531 2.71952,-2.685362 l 2.3646,0 c -0.14907,2.413328 -1.96708,4.429548 -5.0573,4.429548 -0.84788,0 -2.78972,-0.170705 -4.11399,-1.597824 -0.74613,-0.862351 -1.49463,-2.166244 -1.49463,-4.725264 0,-5.146785 3.19275,-6.671245 5.68197,-6.671245 0.82422,0 2.69271,0.172232 3.83793,1.52446 0.92439,1.060189 0.99695,2.069199 1.04743,2.758439 l -2.36854,0"
       inkscape:connector-curvature="0" />
    <path
       id="path58"
       style="fill:#005876;fill-opacity:0.98431373;fill-rule:nonzero;stroke:none"
       d="m 210.43758,66.130602 2.36933,0 0,7.210142 c 0.77137,-1.303854 2.31806,-2.04326 4.06114,-2.04326 1.32269,0 3.21642,0.468867 3.93889,1.969958 0.25003,0.493249 0.42513,1.083558 0.42513,2.880037 l 0,7.728941 -2.39457,0 0,-7.310864 c 0,-1.107551 0,-3.495897 -2.69271,-3.495897 -1.74545,0 -2.61541,1.057073 -2.93879,1.650732 -0.39909,0.68924 -0.39909,1.845165 -0.39909,2.608018 l 0,6.548011 -2.36933,0 0,-17.745818"
       inkscape:connector-curvature="0" />
  </g>
  <path
     inkscape:connector-curvature="0"
     id="path4352"
     d=""
     style="color:#000000;clip-rule:nonzero;display:inline;overflow:visible;visibility:visible;opacity:1;isolation:auto;mix-blend-mode:normal;color-interpolation:sRGB;color-interpolation-filters:linearRGB;solid-color:#000000;solid-opacity:1;fill:#005876;fill-opacity:0.98431373;fill-rule:nonzero;stroke:none;stroke-width:4.80000019;stroke-linecap:round;stroke-linejoin:miter;stroke-miterlimit:4;stroke-dasharray:none;stroke-dashoffset:0;stroke-opacity:1;color-rendering:auto;image-rendering:auto;shape-rendering:auto;text-rendering:auto;enable-background:accumulate" />
</svg>
