<?xml version="1.0" encoding="UTF-8" standalone="no"?>
<svg
   xmlns:dc="http://purl.org/dc/elements/1.1/"
   xmlns:cc="http://creativecommons.org/ns#"
   xmlns:rdf="http://www.w3.org/1999/02/22-rdf-syntax-ns#"
   xmlns:svg="http://www.w3.org/2000/svg"
   xmlns="http://www.w3.org/2000/svg"
   xmlns:sodipodi="http://sodipodi.sourceforge.net/DTD/sodipodi-0.dtd"
   xmlns:inkscape="http://www.inkscape.org/namespaces/inkscape"
   id="svg2"
   viewBox="0 0 158.81 158.81"
   version="1.1"
   inkscape:version="0.91 r13725"
   sodipodi:docname="Minus_in_circle.svg">
  <defs
     id="defs4228" />
  <sodipodi:namedview
     pagecolor="#ffffff"
     bordercolor="#666666"
     borderopacity="1"
     objecttolerance="10"
     gridtolerance="10"
     guidetolerance="10"
     inkscape:pageopacity="0"
     inkscape:pageshadow="2"
     inkscape:window-width="1675"
     inkscape:window-height="1134"
     id="namedview4226"
     showgrid="false"
     inkscape:zoom="5.6771851"
     inkscape:cx="44.735692"
     inkscape:cy="79.404999"
     inkscape:window-x="0"
     inkscape:window-y="0"
     inkscape:window-maximized="0"
     inkscape:current-layer="svg2" />
  <metadata
     id="metadata12">
    <rdf:RDF>
      <cc:Work
         rdf:about="">
        <dc:format>image/svg+xml</dc:format>
        <dc:type
           rdf:resource="http://purl.org/dc/dcmitype/StillImage" />
        <dc:title></dc:title>
      </cc:Work>
    </rdf:RDF>
  </metadata>
  <path
     id="path4"
     stroke-linejoin="round"
     d="m155.06,79.438c0,41.799-33.885,75.684-75.684,75.684s-75.684-33.885-75.684-75.684,33.885-75.684,75.684-75.684,75.684,33.885,75.684,75.684z"
     stroke="#000"
     stroke-linecap="round"
     stroke-width="3.44020009"
     fill="none" />
  <path
     id="rect3139"
     fill="#231f20"
     d="m37.216,64.443v28.67h88.24v-28.67h-88.24z" />
  <path
     style="color:#000000;clip-rule:nonzero;display:inline;overflow:visible;visibility:visible;opacity:1;isolation:auto;mix-blend-mode:normal;color-interpolation:sRGB;color-interpolation-filters:linearRGB;solid-color:#000000;solid-opacity:1;fill:#e7f0fb;fill-opacity:1;fill-rule:nonzero;stroke:#ccdee3;stroke-width:0.845;stroke-linecap:round;stroke-linejoin:miter;stroke-miterlimit:4;stroke-dasharray:none;stroke-dashoffset:0;stroke-opacity:1;color-rendering:auto;image-rendering:auto;shape-rendering:auto;text-rendering:auto;enable-background:accumulate"
     d="m 75.120468,153.20016 c -7.461605,-0.58764 -12.850416,-1.62142 -18.95161,-3.63563 -8.826988,-2.91409 -17.650519,-7.87206 -24.643939,-13.84752 -2.033811,-1.73777 -6.055307,-5.72706 -7.829538,-7.76683 C 17.162181,120.4392 12.213127,111.74497 9.1352036,102.37164 3.571356,85.427839 4.4527842,66.472953 11.566153,50.094698 18.444925,34.256596 30.892528,21.094668 46.277397,13.391498 65.128895,3.9525938 86.911373,3.0065611 106.65018,10.769454 c 4.85049,1.907603 11.277,5.407155 15.50064,8.440852 7.4973,5.385065 13.63684,11.719708 18.66576,19.258913 6.63394,9.945418 10.53253,20.611484 12.00738,32.850787 0.43954,3.647579 0.44748,12.452705 0.0146,16.117142 -1.42298,12.044152 -5.2404,22.643962 -11.69816,32.482182 -13.78034,20.99398 -37.25166,33.59768 -62.135896,33.36593 -1.748676,-0.0163 -3.49647,-0.0546 -3.883986,-0.0851 z m 50.465152,-74.39405 0,-14.443777 -44.212053,0 -44.212052,0 0,14.443777 0,14.443778 44.212052,0 44.212053,0 0,-14.443778 z"
     id="path4230"
     inkscape:connector-curvature="0" />
</svg>
