<?xml version="1.0" encoding="UTF-8" standalone="no"?>
<svg
   xmlns:dc="http://purl.org/dc/elements/1.1/"
   xmlns:cc="http://creativecommons.org/ns#"
   xmlns:rdf="http://www.w3.org/1999/02/22-rdf-syntax-ns#"
   xmlns:svg="http://www.w3.org/2000/svg"
   xmlns="http://www.w3.org/2000/svg"
   id="svg2"
   height="154.8"
   width="154.8"
   version="1.1">
  <metadata
     id="metadata12">
    <rdf:RDF>
      <cc:Work
         rdf:about="">
        <dc:format>image/svg+xml</dc:format>
        <dc:type
           rdf:resource="http://purl.org/dc/dcmitype/StillImage" />
        <dc:title></dc:title>
      </cc:Work>
    </rdf:RDF>
  </metadata>
  <defs
     id="defs10" />
  <path
     id="path4"
     style="fill:none;stroke:#000000;stroke-width:3.44020009;stroke-linecap:round;stroke-linejoin:round"
     d="m 153.0881,77.4041 c 0,41.799 -33.885,75.684 -75.684,75.684 -41.799,0 -75.684,-33.885 -75.684,-75.684 0,-41.799 33.885,-75.684 75.684,-75.684 41.799,0 75.684,33.885 75.684,75.684 l 0,0 z" />
  <path
     id="path6"
     style="fill:#231f20"
     d="m 62.1961,33.1441 v 29.785 h -29.785 v 28.67 h 29.785 v 29.785 h 28.668 v -29.785 h 29.787 v -28.67 h -29.788 v -29.785 h -28.667 z" />
  <path
     id="path4140"
     d="M 70.219953,150.95078 C 37.755895,147.65383 11.167826,123.51404 4.9414166,91.683209 3.9647706,86.69037 3.6219074,83.01313 3.6153958,77.46151 3.6093398,72.298307 3.8159896,69.709744 4.61489,64.94151 9.0720363,38.339053 28.289783,15.935218 54.028118,7.3361196 61.044306,4.9920332 67.695644,3.8356814 75.44819,3.6121872 c 15.329869,-0.441937 29.95767,3.7561334 42.74852,12.2685068 4.21745,2.806735 7.07434,5.116529 10.71978,8.666936 17.04228,16.598002 24.95592,39.934447 21.55912,63.575382 -4.35777,30.329058 -27.60729,55.148848 -57.61382,61.505068 -5.426056,1.14939 -7.635411,1.37008 -14.440682,1.44248 -3.495742,0.0372 -7.186262,-0.0167 -8.201155,-0.11978 z m 20.810431,-44.37517 0,-14.864593 14.864596,0 14.86459,0 0,-14.454536 0,-14.454535 -14.86459,0 -14.864596,0 0,-14.864594 0,-14.864593 -14.454536,0 -14.454535,0 0,14.864593 0,14.864594 -14.864594,0 -14.864593,0 0,14.454535 0,14.454536 14.864593,0 14.864594,0 0,14.864593 0,14.86459 14.454535,0 14.454536,0 0,-14.86459 z"
     style="color:#000000;clip-rule:nonzero;display:inline;overflow:visible;visibility:visible;opacity:1;isolation:auto;mix-blend-mode:normal;color-interpolation:sRGB;color-interpolation-filters:linearRGB;solid-color:#000000;solid-opacity:1;fill:#e7f0fb;fill-opacity:1;fill-rule:nonzero;stroke:#ccdee3;stroke-width:0.98413861;stroke-linecap:round;stroke-linejoin:miter;stroke-miterlimit:4;stroke-dasharray:none;stroke-dashoffset:0;stroke-opacity:1;color-rendering:auto;image-rendering:auto;shape-rendering:auto;text-rendering:auto;enable-background:accumulate" />
</svg>
