<?xml version="1.0"?><svg width="793.7007874015749" height="1122.5196850393702" xmlns="http://www.w3.org/2000/svg">
 <title>speech edited</title>

 <g>
  <title>Layer 1</title>
  <path fill="none" fill-opacity="0.75" fill-rule="evenodd" stroke-width="7.5" stroke="#000000" id="path575" d="m-674.025208,-249.006317c-22.159973,0 -40,17.839996 -40,40l0,239.583857c0,22.160002 17.840027,39.999998 40,39.999998l126.835815,0l-17.12085,103.648827l98.044495,-103.648827l299.583862,0c22.160004,0 40.000008,-17.839996 40.000008,-39.999998l0,-239.583857c0,-22.160004 -17.840004,-40 -40.000008,-40l-507.343323,0z"/>
  <path fill="none" fill-opacity="0.75" fill-rule="evenodd" stroke="#000000" stroke-width="7.5" id="path576" d="m945.795532,-227.720688c0,-22.160004 -17.840027,-40.000015 -40.000061,-40.000015l-628.266937,0c-22.160004,0 -40,17.840012 -40,40.000015l0,60.615753l-103.648819,-17.120865l103.648819,98.044487l0,121.077572c0,22.16 17.839996,40.000004 40,40.000004l628.266937,0c22.160034,0 40.000061,-17.840004 40.000061,-40.000004l0,-262.616947z"/>
  <path fill="none" fill-opacity="0.75" fill-rule="evenodd" stroke="#000000" stroke-width="7.5" id="path587" d="m-727.315369,241.915161c-22.159973,0.000015 -40,17.839996 -40,40l0,76.1875c-53.285583,4.081879 -98.473206,-10.06839 -128.1875,-40.03125c11.502808,45.880341 61.334839,83.750214 128.1875,100.40625l0,126.03125c0,22.160034 17.840027,40 40,40l628.312515,0c22.16008,0 40.000004,-17.840027 40.000004,-40l0,-262.59375c0,-22.159973 -17.839909,-40 -40.000004,-40l-628.312515,0z"/>
  <path fill="none" fill-opacity="0.75" fill-rule="evenodd" stroke="#000000" stroke-width="7.5" id="path588" d="m39.344349,622.988281c0.000031,22.160034 17.840012,40 40.000011,40l27.82489,1c3.081909,37.164734 -47.823792,63.569397 -26.66864,53.1875c21.155151,-10.381897 53.266754,-18.334778 63.406189,-54.1875l560.802124,0c22.160034,0 40,-17.839966 40,-40l0,-288.574677c0,-22.160095 -17.839966,-40 -40,-40l-625.364563,0c-22.159969,0 -40.000011,17.839905 -40.000011,40l0,288.574677z"/>
  <path fill="none" fill-opacity="0.75" fill-rule="evenodd" stroke="#000000" stroke-width="7.5" id="path595" d="m-368.520142,649.313843c-247.927979,0 -449.124939,121.875305 -449.125,272.0625c0,81.531738 59.369263,154.682617 153.25,204.5625c-54.924255,55.882935 -133.816833,95.573364 -224.0625,108.75c17.350525,1.270508 35.033875,1.96875 53.03125,1.96875c112.446655,-0.000122 213.749084,-25.643066 284.8125,-66.59375c55.681458,14.99646 117.26123,23.40625 182.09375,23.40625c247.927994,0 449.156281,-121.906738 449.156265,-272.09375c0,-150.187134 -201.228256,-272.0625 -449.156265,-272.0625z"/>
  <path fill="none" fill-rule="evenodd" stroke="black" stroke-width="7.5" fill-opacity="0.75" id="path583" d="m310.946442,1299.967651l166.989777,-221.693237l-166.989746,11.516479l123.802734,-86.374023l-172.748016,-66.220032l215.935028,-20.153931l-71.978333,-143.956726l129.561035,95.011414l48.945251,-126.681885l48.945251,95.011414l83.494934,-126.681885l63.340942,103.648804l100.769714,-71.978333l-2.879211,89.253174l106.528015,-92.132324l-48.945313,149.714966l149.714966,40.307922l-166.989746,48.945251l149.714966,106.527893l-178.506287,5.758301l46.066101,126.681885l-106.527893,-89.253052l-60.461853,106.527832l-60.461853,-83.494873l-77.736572,103.648804l-17.274841,-100.769653l-66.220032,69.099243l-11.516541,-95.011475l-224.572479,172.748047z"/>
  <g id="g623">
   <path fill="none" fill-rule="evenodd" stroke="black" stroke-width="7.5" fill-opacity="0.75" id="path614" d="m1532.405762,249.30925c-23.032959,135.31929 178.506348,146.835831 190.022949,28.791336c37.428711,126.681915 210.176758,118.044495 233.209717,-43.187012c43.187012,86.374023 181.385498,20.153946 115.165527,-54.703537c69.099121,51.824417 221.693115,-37.428757 86.374023,-135.319321c89.253174,5.75827 164.110596,-282.155121 -63.341064,-187.143707c109.407227,-132.440186 -112.286133,-236.088989 -184.264648,-100.769714c8.637451,-71.978333 -77.736572,-60.461792 -86.374023,-11.516541c57.582764,-126.681885 -233.209717,-267.75946 -238.968018,5.758301c-60.461914,-138.198425 -236.088867,-57.582703 -166.989746,51.824402c-43.187012,-48.945251 -74.857422,14.395691 -48.945313,31.670471c-112.286377,-123.802734 -253.36377,126.681915 -97.890625,161.231537c-169.868896,25.912201 -51.824463,184.264572 34.549561,123.802734c-54.703613,40.307892 -5.758301,164.110657 115.165527,95.011444c-51.824463,71.978363 92.132324,123.802765 112.286133,34.549606z"/>
   <path fill="none" fill-rule="evenodd" stroke="black" stroke-width="5" fill-opacity="0.75" id="path619" d="m1376.812744,443.668396c-37.428711,-71.978363 -118.044678,71.978333 -8.637451,71.978333c109.406982,0 51.824463,-106.527954 8.637451,-71.978333z"/>
   <path fill="none" fill-opacity="0.75" fill-rule="evenodd" stroke="#000000" stroke-width="5" id="path620" d="m1166.270996,592.956299c57.538086,-10.422485 39.646484,-65.827942 -0.554199,-71.201233c-40.200439,-5.373352 -67.068848,14.256592 -52.914063,38.237732c14.155029,23.981201 28.962402,16.633484 37.862061,9.450989c-2.830322,5.681946 -6.760742,28.695862 15.606201,23.512512z"/>
   <path fill="none" fill-opacity="0.75" fill-rule="evenodd" stroke="#000000" stroke-width="5" id="path621" d="m1268.063965,548.16748c57.537842,-10.422485 39.646484,-65.827972 -0.554199,-71.201263c-40.200684,-5.373352 -67.069092,14.256592 -52.914063,38.237762c14.154785,23.98114 28.962158,16.633484 37.861816,9.450928c-2.830078,5.681946 -6.760742,28.695923 15.606445,23.512573z"/>
   <path fill="none" fill-opacity="0.75" fill-rule="evenodd" stroke="#000000" stroke-width="7.02858" id="path622" d="m1465.179688,422.371674c53.665771,106.348602 149.841553,-115.117126 6.632813,-108.946655c-143.20874,6.170441 -60.919434,163.442932 -6.632813,108.946655z"/>
  </g>
  <path fill="#ffff00" fill-rule="evenodd" stroke="#000000" stroke-width="7.5" id="path629" d="m1577.249146,1104.525513l40.766724,-91.398499l-166.989746,11.516541l123.802734,-86.374084l-172.747925,-66.220093l215.934937,-20.153931l-71.978271,-143.956665l129.561035,95.011414l48.945313,-126.681885l48.94519,95.011414l83.494873,-126.681885l63.340942,103.648804l100.769775,-71.978333l-2.879272,89.253113l106.527954,-92.132263l-48.945313,149.714966l149.715088,40.307861l-166.989746,48.945313l149.714844,106.527893l-178.506226,5.758362l46.06604,126.681885l-106.527832,-89.253174l-60.461914,106.527954l-60.461792,-83.494873l-77.736572,103.648804l-17.27478,-100.769775l-66.220093,69.099365l-11.516479,-95.011597l-98.349487,42.453369z"/>
 </g>
</svg>